<?xml version="1.0" encoding="UTF-8" standalone="no"?>
<svg
   xmlns:dc="http://purl.org/dc/elements/1.1/"
   xmlns:cc="http://creativecommons.org/ns#"
   xmlns:rdf="http://www.w3.org/1999/02/22-rdf-syntax-ns#"
   xmlns:svg="http://www.w3.org/2000/svg"
   xmlns="http://www.w3.org/2000/svg"
   xmlns:sodipodi="http://sodipodi.sourceforge.net/DTD/sodipodi-0.dtd"
   xmlns:inkscape="http://www.inkscape.org/namespaces/inkscape"
   inkscape:version="1.0 (4035a4fb49, 2020-05-01)"
   sodipodi:docname="Black Lives Matter Matter heart.svg"
   viewBox="0 0 1056 816"
   height="816"
   width="1056"
   xml:space="preserve"
   id="svg2"
   version="1.1"><metadata
     id="metadata8"><rdf:RDF><cc:Work
         rdf:about=""><dc:format>image/svg+xml</dc:format><dc:type
           rdf:resource="http://purl.org/dc/dcmitype/StillImage" /><dc:title></dc:title></cc:Work></rdf:RDF></metadata><defs
     id="defs6" /><sodipodi:namedview
     inkscape:current-layer="g10"
     inkscape:window-maximized="1"
     inkscape:window-y="0"
     inkscape:window-x="0"
     inkscape:cy="410.29931"
     inkscape:cx="528"
     inkscape:zoom="1.2092803"
     showgrid="false"
     id="namedview4"
     inkscape:window-height="1134"
     inkscape:window-width="1920"
     inkscape:pageshadow="2"
     inkscape:pageopacity="0"
     guidetolerance="10"
     gridtolerance="10"
     objecttolerance="10"
     borderopacity="1"
     bordercolor="#666666"
     pagecolor="#ffffff" /><g
     transform="matrix(1.3333333,0,0,-1.3333333,0,816)"
     inkscape:label="Black Lives Matter"
     inkscape:groupmode="layer"
     id="g10"><path
       id="path12"
       style="fill:#ffffff;fill-opacity:1;fill-rule:evenodd;stroke:none"
       d="M 35.85,451.85 H 755.9 V 160.15 H 35.85 Z" /><text
       y="-238.8"
       x="138.5"
       transform="scale(1,-1)"
       style="font-variant:normal;font-weight:normal;font-size:259.9px;font-family:'Dobkin Script';-inkscape-font-specification:DobkinScript;writing-mode:lr-tb;fill:#000000;fill-opacity:1;fill-rule:nonzero;stroke:none"
       id="text18"><tspan
         sodipodi:role="line"
         x="138.5 351.8779 406.7168 481.04819 564.99591"
         y="-238.8"
         id="tspan16">Lives</tspan></text><path
       transform="matrix(0.75000002,0,0,-0.75000002,0,612.00002)"
       id="path855"
       d="m 578.37085,468.47647 c -6.29998,-14.62832 -6.59313,-15.32497 -7.54094,-17.92094 -2.42648,-6.64592 -3.88537,-13.15798 -4.40067,-19.64337 -0.20357,-2.56199 -0.0878,-8.61678 0.20967,-10.96795 1.06569,-8.42248 3.72671,-15.34727 8.43565,-21.95211 3.89451,-5.46252 7.75812,-8.61402 11.99821,-9.78682 1.56652,-0.4333 4.89364,-0.42836 6.49866,0.01 2.6443,0.72163 4.47519,2.02297 5.78695,4.11316 0.19168,0.30542 0.57426,1.36705 0.85018,2.35918 0.27593,0.99213 0.88049,2.92796 1.34347,4.30183 0.46299,1.37388 1.02669,3.14831 1.25268,3.94318 0.22598,0.79486 0.43282,1.46715 0.45964,1.49396 0.0268,0.0268 0.38389,-0.7172 0.7935,-1.65337 0.40961,-0.93618 0.78196,-1.73336 0.82744,-1.77152 0.0455,-0.0382 0.37041,-0.66265 0.72207,-1.38776 2.26683,-4.67414 5.39797,-7.24511 9.82121,-8.06416 1.13972,-0.21104 4.48629,-0.20857 5.74585,0.004 2.72485,0.46038 6.67132,2.17225 8.70937,3.77789 2.63368,2.0749 3.73315,9.00501 2.80397,17.67388 -1.2887,12.02301 -6.64536,23.5495 -15.80067,34 -1.59529,1.82097 -20.07807,20.4902 -27.50783,27.78533 l -5.82559,5.72002 z"
       style="fill:#ff0000;fill-opacity:0.752941;stroke:#ff0000;stroke-width:0.0416327;stroke-miterlimit:4;stroke-dasharray:none" /></g></svg>
